# xmcd
#
# Track frame offsets: 
#        150
#        12523
#        25895
#        44836
#        57748
#        69949
#        83638
#        98111
#        112111
#        127087
#        141100
#        152823
#        167526
#        181027
#        195213
#        207755
#        222193
#        233897
#
# Disc length: 3297 seconds
#
# Revision: 1
# Processed by: cddbd v1.5.2PL0 Copyright (c) Steve Scherf et al.
# Submitted via: ExactAudioCopy v0.99pb5
#
DISCID=fa0cdf12
DTITLE=Coleman Hawkins - Discovery Of Jazz - Cd 2
DYEAR=2004
DGENRE=Jazz
TTITLE0=Blues Evermore
TTITLE1=And So To Sleep Again
TTITLE2=Blues Changes
TTITLE3=Dedication
TTITLE4=Dear Old Southland
TTITLE5=Consolation
TTITLE6=Blue Moon
TTITLE7=Bean Stalking
TTITLE8=Ain't Cha Glad
TTITLE9=Bouncing With Bean
TTITLE10=A Strange Fact
TTITLE11=Bean's Talking Again
TTITLE12=Crazy Rhythm
TTITLE13=Boff Boff (Mop Mop)
TTITLE14=Devotion
TTITLE15=Angel Face
TTITLE16=After You've Gone
TTITLE17=Body And Soul
EXTD=
EXTT0=
EXTT1=
EXTT2=
EXTT3=
EXTT4=
EXTT5=
EXTT6=
EXTT7=
EXTT8=
EXTT9=
EXTT10=
EXTT11=
EXTT12=
EXTT13=
EXTT14=
EXTT15=
EXTT16=
EXTT17=
PLAYORDER=
